<svg aria-hidden="true" style="position: absolute; width: 0; height: 0; overflow: hidden;" version="1.1" xmlns="http://www.w3.org/2000/svg" xmlns:xlink="http://www.w3.org/1999/xlink">
<defs>
<symbol id="icon-arrow" viewBox="0 0 32 32">
<path d="M5.12 16c0-6.016 4.864-10.88 10.88-10.88s10.88 4.864 10.88 10.88c0 6.016-4.864 10.88-10.88 10.88s-10.88-4.864-10.88-10.88zM25.6 16c0-5.312-4.288-9.6-9.6-9.6s-9.6 4.288-9.6 9.6c0 5.312 4.288 9.6 9.6 9.6s9.6-4.288 9.6-9.6z"></path>
<path d="M14.912 21.312l5.312-5.312-5.312-5.312 0.896-0.896 6.208 6.208-6.208 6.208-0.896-0.896z"></path>
<path d="M21.12 15.36v1.28h-10.88v-1.28h10.88z"></path>
</symbol>
<symbol id="icon-tik-tok" viewBox="0 0 32 32">
<path d="M29.714 9.048c-1.894-0.002-3.709-0.756-5.048-2.095s-2.092-3.155-2.095-5.048c0-0.227-0.090-0.445-0.251-0.606s-0.379-0.251-0.606-0.251h-5.714c-0.227 0-0.445 0.090-0.606 0.251s-0.251 0.379-0.251 0.606v18.857c-0 0.562-0.152 1.114-0.438 1.598s-0.697 0.882-1.19 1.153c-0.493 0.271-1.049 0.405-1.611 0.388s-1.109-0.185-1.584-0.486c-0.475-0.301-0.861-0.724-1.117-1.224s-0.373-1.061-0.339-1.622c0.034-0.561 0.218-1.103 0.533-1.569s0.749-0.839 1.257-1.080c0.147-0.070 0.27-0.179 0.357-0.316s0.133-0.296 0.133-0.458v-6.099c-0-0.125-0.027-0.248-0.080-0.361s-0.129-0.213-0.224-0.293c-0.095-0.080-0.207-0.139-0.327-0.172s-0.246-0.039-0.369-0.018c-4.971 0.884-8.714 5.423-8.714 10.559 0 2.804 1.114 5.493 3.096 7.475s4.671 3.096 7.475 3.096 5.493-1.114 7.475-3.096c1.982-1.983 3.096-4.672 3.096-7.475v-6.153c2.18 1.229 4.64 1.873 7.143 1.867 0.227 0 0.445-0.090 0.606-0.251s0.251-0.379 0.251-0.606v-5.714c0-0.227-0.090-0.445-0.251-0.606s-0.379-0.251-0.606-0.251zM28.857 14.733c-2.395-0.153-4.697-0.979-6.643-2.384-0.128-0.092-0.279-0.147-0.437-0.159s-0.315 0.020-0.455 0.093c-0.14 0.072-0.258 0.182-0.34 0.317s-0.125 0.29-0.125 0.448v7.714c0 2.349-0.933 4.602-2.594 6.263s-3.914 2.594-6.263 2.594-4.602-0.933-6.263-2.594c-1.661-1.661-2.594-3.914-2.594-6.263 0-3.96 2.639-7.497 6.286-8.626v4.504c-0.717 0.448-1.305 1.075-1.706 1.819s-0.6 1.581-0.578 2.426c0.022 0.845 0.264 1.67 0.702 2.393s1.058 1.319 1.797 1.729c0.739 0.41 1.573 0.62 2.418 0.61s1.673-0.242 2.402-0.671c0.729-0.429 1.333-1.041 1.752-1.775s0.641-1.565 0.641-2.41v-18h4.041c0.201 2.042 1.104 3.952 2.555 5.403s3.361 2.354 5.403 2.555v4.013z"></path>
</symbol>
<symbol id="icon-facebook" viewBox="0 0 32 32">
<path d="M24.47 0.866c-1.467-0.156-2.942-0.231-4.417-0.227-4.892 0-7.932 3.116-7.932 8.131v3.405h-4.109c-0.193 0-0.378 0.077-0.514 0.213s-0.213 0.321-0.213 0.514v5.6c0 0.193 0.077 0.378 0.213 0.514s0.321 0.213 0.514 0.213h4.109v11.229c0 0.193 0.077 0.378 0.213 0.514s0.321 0.213 0.514 0.213h5.786c0.193 0 0.378-0.077 0.514-0.213s0.213-0.321 0.213-0.514v-11.229h4.096c0.177 0 0.347-0.064 0.48-0.18s0.219-0.277 0.242-0.452l0.723-5.6c0.014-0.103 0.005-0.207-0.025-0.306s-0.081-0.191-0.149-0.268c-0.068-0.078-0.152-0.14-0.247-0.183s-0.197-0.065-0.3-0.065h-4.819v-2.849c0-1.411 0.284-2 2.048-2h2.966c0.193 0 0.378-0.077 0.514-0.213s0.213-0.321 0.213-0.514v-5.011c0-0.177-0.064-0.347-0.18-0.48s-0.277-0.219-0.452-0.242zM23.648 5.87l-2.24 0.001c-3.137 0-3.501 1.972-3.501 3.455v3.578c0 0.193 0.076 0.377 0.212 0.514s0.321 0.213 0.513 0.214h4.721l-0.537 4.145h-4.183c-0.193 0-0.378 0.077-0.514 0.213s-0.213 0.321-0.213 0.514v11.226h-4.332v-11.226c0-0.193-0.077-0.378-0.213-0.514s-0.321-0.213-0.514-0.213h-4.108v-4.145h4.108c0.193 0 0.378-0.077 0.514-0.213s0.213-0.321 0.213-0.514v-4.134c0-4.18 2.422-6.676 6.477-6.676 1.468 0 2.793 0.080 3.596 0.15v3.626z"></path>
</symbol>
<symbol id="icon-discord" viewBox="0 0 32 32">
<path d="M26.453 6.362c0.211 0.096 0.393 0.247 0.525 0.438 3.341 4.838 5.018 10.342 4.403 16.64-0.018 0.179-0.073 0.353-0.162 0.51s-0.211 0.293-0.356 0.399c-2.266 1.664-4.813 2.918-7.514 3.725-0.249 0.075-0.516 0.072-0.763-0.010s-0.463-0.238-0.619-0.447c-0.579-0.768-1.096-1.587-1.549-2.432-1.395 0.335-2.829 0.507-4.262 0.507-1.446 0-2.88-0.172-4.262-0.508-0.45 0.851-0.968 1.664-1.549 2.432-0.158 0.21-0.376 0.367-0.626 0.448s-0.518 0.085-0.77 0.009c-2.699-0.808-5.241-2.072-7.514-3.738-0.146-0.107-0.267-0.243-0.357-0.4s-0.144-0.331-0.162-0.51c-0.525-5.453 0.535-11.008 4.39-16.64 0.132-0.193 0.315-0.347 0.529-0.444 1.958-0.884 4.019-1.51 6.131-1.869 0.531-0.090 1.062 0.164 1.331 0.632 0.137 0.243 0.268 0.489 0.394 0.739 1.634-0.175 3.282-0.175 4.915 0 0.125-0.249 0.256-0.495 0.394-0.739 0.13-0.23 0.327-0.414 0.566-0.527s0.506-0.15 0.766-0.105c2.112 0.355 4.173 0.982 6.131 1.869l-0.012 0.022zM19.375 7.256c-2.139-0.319-4.313-0.319-6.451 0-0.222-0.512-0.47-1.011-0.744-1.498-2.010 0.339-3.968 0.934-5.811 1.779-3.674 5.389-4.672 10.637-4.173 15.744 2.15 1.574 4.557 2.778 7.13 3.546 0.578-0.766 1.088-1.58 1.526-2.433-0.387-0.143-0.769-0.302-1.143-0.476l-0.042-0.019c-0.416-0.195-0.822-0.409-1.219-0.64 0.201-0.143 0.398-0.294 0.589-0.436 0.961 0.448 1.962 0.803 2.99 1.061 3.018 0.761 6.187 0.675 9.158-0.251 0.717-0.223 1.421-0.494 2.099-0.812 0.194 0.157 0.39 0.303 0.589 0.438-0.1 0.058-0.201 0.116-0.305 0.173-0.3 0.166-0.606 0.323-0.918 0.468l-0.040 0.019c-0.375 0.174-0.756 0.333-1.144 0.476 0.072 0.141 0.146 0.28 0.223 0.419 0.385 0.702 0.821 1.375 1.303 2.015 2.56-0.765 4.979-1.958 7.13-3.533 0.585-6.003-0.998-11.2-4.186-15.872-1.852-0.838-3.806-1.432-5.811-1.766-0.274 0.486-0.522 0.986-0.744 1.498l-0.006 0.101zM8.943 17.381c0 1.536 1.147 2.778 2.534 2.778 1.421 0 2.509-1.247 2.534-2.778 0.024-1.536-1.114-2.79-2.534-2.79s-2.534 1.258-2.534 2.79zM18.3 17.381c0 1.536 1.143 2.778 2.534 2.778 1.421 0 2.509-1.247 2.534-2.778 0.026-1.536-1.105-2.79-2.534-2.79s-2.534 1.258-2.534 2.79z"></path>
</symbol>
<symbol id="icon-instagram" viewBox="0 0 32 32">
<path stroke-linejoin="round" stroke-linecap="round" stroke-miterlimit="4" stroke-width="1.3333" d="M23.618 8.329c-0.151 0-0.297-0.060-0.404-0.167s-0.167-0.253-0.167-0.404c0-0.152 0.060-0.297 0.167-0.404s0.253-0.167 0.404-0.167M23.618 8.329c0.152 0 0.297-0.060 0.404-0.167s0.167-0.253 0.167-0.404-0.060-0.297-0.167-0.404c-0.107-0.107-0.253-0.167-0.404-0.167"></path>
<path stroke-linejoin="round" stroke-linecap="round" stroke-miterlimit="4" stroke-width="1.3333" d="M1.961 7.842c0-1.56 0.62-3.056 1.723-4.159s2.599-1.723 4.159-1.723h15.685c0.772 0 1.537 0.152 2.251 0.448s1.362 0.729 1.908 1.275 0.979 1.194 1.275 1.908c0.296 0.714 0.448 1.478 0.448 2.251v15.685c0 1.56-0.62 3.056-1.723 4.159s-2.599 1.723-4.159 1.723h-15.687c-1.56 0-3.056-0.62-4.159-1.723s-1.723-2.599-1.723-4.159v-15.687l0.002 0.002z"></path>
<path stroke-linejoin="round" stroke-linecap="round" stroke-miterlimit="4" stroke-width="1.3333" d="M9.856 15.684c0 0.765 0.151 1.523 0.444 2.231s0.722 1.35 1.263 1.891c0.541 0.541 1.184 0.971 1.891 1.263s1.465 0.444 2.231 0.444c0.765 0 1.523-0.151 2.231-0.444s1.35-0.722 1.891-1.263c0.541-0.541 0.971-1.184 1.263-1.891s0.444-1.465 0.444-2.231c0-1.546-0.614-3.028-1.707-4.121s-2.576-1.707-4.121-1.707c-1.546 0-3.028 0.614-4.121 1.707s-1.707 2.576-1.707 4.121z"></path>
</symbol>
<symbol id="icon-x" viewBox="0 0 32 32">
<path d="M8.533 25.333l-1.867-1.867 7.467-7.467-7.467-7.467 1.867-1.867 7.467 7.467 7.467-7.467 1.867 1.867-7.467 7.467 7.467 7.467-1.867 1.867-7.467-7.467-7.467 7.467z"></path>
</symbol>
<symbol id="icon-menu-burger" viewBox="0 0 32 32">
<path stroke-linejoin="round" stroke-linecap="round" stroke-miterlimit="4" stroke-width="2.0645" d="M4.387 8.258h23.226M4.387 16h23.226M4.387 23.742h23.226"></path>
</symbol>
</defs>
</svg>
