<svg aria-hidden="true" style="position: absolute; width: 0; height: 0; overflow: hidden;" version="1.1" xmlns="http://www.w3.org/2000/svg" xmlns:xlink="http://www.w3.org/1999/xlink">
<defs>
<symbol id="icon-streamline_instagram" viewBox="0 0 32 32">
  <path fill="none" stroke="#4b0082" stroke-linejoin="round" stroke-linecap="round" stroke-miterlimit="4" stroke-width="1.3333"
    d="M23.618 8.329c-0.151 0-0.297-0.060-0.404-0.167s-0.167-0.253-0.167-0.404c0-0.152 0.060-0.297 0.167-0.404s0.253-0.167 0.404-0.167M23.618 8.329c0.152 0 0.297-0.060 0.404-0.167s0.167-0.253 0.167-0.404-0.060-0.297-0.167-0.404c-0.107-0.107-0.253-0.167-0.404-0.167">
  </path>
  <path fill="none" stroke="#4b0082" stroke-linejoin="round" stroke-linecap="round" stroke-miterlimit="4" stroke-width="1.3333"
    d="M1.961 7.842c0-1.56 0.62-3.056 1.723-4.159s2.599-1.723 4.159-1.723h15.685c0.772 0 1.537 0.152 2.251 0.448s1.362 0.729 1.908 1.275 0.979 1.194 1.275 1.908c0.296 0.714 0.448 1.478 0.448 2.251v15.685c0 1.56-0.62 3.056-1.723 4.159s-2.599 1.723-4.159 1.723h-15.687c-1.56 0-3.056-0.62-4.159-1.723s-1.723-2.599-1.723-4.159v-15.687l0.002 0.002z">
  </path>
  <path fill="none" stroke="#4b0082" stroke-linejoin="round" stroke-linecap="round" stroke-miterlimit="4" stroke-width="1.3333"
    d="M9.856 15.684c0 0.765 0.151 1.523 0.444 2.231s0.722 1.35 1.263 1.891c0.541 0.541 1.184 0.971 1.891 1.263s1.465 0.444 2.231 0.444c0.765 0 1.523-0.151 2.231-0.444s1.35-0.722 1.891-1.263c0.541-0.541 0.971-1.184 1.263-1.891s0.444-1.465 0.444-2.231c0-1.546-0.614-3.028-1.707-4.121s-2.576-1.707-4.121-1.707c-1.546 0-3.028 0.614-4.121 1.707s-1.707 2.576-1.707 4.121z">
  </path>
</symbol><symbol id="icon-Vector_qlementine" viewBox="0 0 40 32">
<path d="M33.067 3.952c0.264 0.12 0.491 0.309 0.656 0.547 4.176 6.048 6.272 12.928 5.504 20.8-0.022 0.224-0.091 0.441-0.203 0.637s-0.264 0.366-0.445 0.499c-2.832 2.080-6.016 3.648-9.392 4.656-0.312 0.094-0.645 0.090-0.954-0.013s-0.579-0.297-0.774-0.559c-0.723-0.96-1.37-1.984-1.936-3.040-1.744 0.419-3.536 0.634-5.328 0.634-1.808 0-3.6-0.214-5.328-0.635-0.563 1.064-1.21 2.080-1.936 3.040-0.197 0.263-0.47 0.458-0.782 0.56s-0.648 0.106-0.962 0.011c-3.374-1.010-6.551-2.59-9.392-4.672-0.182-0.133-0.334-0.303-0.446-0.5s-0.181-0.413-0.202-0.638c-0.656-6.816 0.669-13.76 5.488-20.8 0.165-0.242 0.394-0.434 0.661-0.555 2.448-1.106 5.024-1.888 7.664-2.336 0.664-0.112 1.328 0.205 1.664 0.79 0.171 0.304 0.335 0.612 0.493 0.923 2.042-0.219 4.102-0.219 6.144 0 0.156-0.311 0.32-0.619 0.493-0.923 0.162-0.287 0.409-0.517 0.707-0.659s0.632-0.187 0.957-0.132c2.64 0.443 5.216 1.227 7.664 2.336l-0.014 0.027zM24.219 5.070c-2.673-0.398-5.391-0.398-8.064 0-0.277-0.64-0.587-1.264-0.93-1.872-2.512 0.424-4.96 1.168-7.264 2.224-4.592 6.736-5.84 13.296-5.216 19.68 2.688 1.968 5.696 3.472 8.912 4.432 0.722-0.957 1.36-1.975 1.907-3.042-0.484-0.179-0.961-0.378-1.429-0.595l-0.053-0.024c-0.519-0.244-1.028-0.511-1.523-0.8 0.251-0.179 0.498-0.368 0.736-0.546 1.201 0.56 2.452 1.004 3.738 1.326 3.772 0.952 7.734 0.843 11.448-0.314 0.896-0.278 1.776-0.618 2.624-1.014 0.242 0.196 0.488 0.379 0.736 0.547-0.125 0.073-0.252 0.145-0.381 0.216-0.376 0.208-0.758 0.403-1.147 0.586l-0.050 0.024c-0.468 0.218-0.945 0.416-1.43 0.595 0.090 0.176 0.182 0.35 0.278 0.523 0.482 0.878 1.026 1.719 1.629 2.518 3.2-0.957 6.224-2.448 8.912-4.416 0.731-7.504-1.248-14-5.232-19.84-2.315-1.048-4.757-1.79-7.264-2.208-0.342 0.608-0.652 1.232-0.93 1.872l-0.008 0.126zM11.179 17.726c0 1.92 1.434 3.472 3.168 3.472 1.776 0 3.136-1.558 3.168-3.472 0.030-1.92-1.392-3.488-3.168-3.488s-3.168 1.573-3.168 3.488zM22.875 17.726c0 1.92 1.429 3.472 3.168 3.472 1.776 0 3.136-1.558 3.168-3.472 0.032-1.92-1.381-3.488-3.168-3.488s-3.168 1.573-3.168 3.488z"></path>
</symbol>
<symbol id="icon-Vector_facebook" viewBox="0 0 19 32">
<path d="M17.925 0.866c-1.467-0.156-2.942-0.231-4.417-0.227-4.892 0-7.932 3.116-7.932 8.131v3.405h-4.109c-0.193 0-0.378 0.077-0.514 0.213s-0.213 0.321-0.213 0.514v5.6c0 0.193 0.077 0.378 0.213 0.514s0.321 0.213 0.514 0.213h4.109v11.229c0 0.193 0.077 0.378 0.213 0.514s0.321 0.213 0.514 0.213h5.786c0.193 0 0.378-0.077 0.514-0.213s0.213-0.321 0.213-0.514v-11.229h4.096c0.177 0 0.347-0.064 0.48-0.18s0.219-0.277 0.242-0.452l0.723-5.6c0.014-0.103 0.005-0.207-0.025-0.306s-0.081-0.191-0.149-0.268c-0.068-0.078-0.152-0.14-0.247-0.183s-0.197-0.065-0.3-0.065h-4.819v-2.849c0-1.411 0.284-2 2.048-2h2.966c0.193 0 0.378-0.077 0.514-0.213s0.213-0.321 0.213-0.514v-5.011c0-0.177-0.064-0.347-0.18-0.48s-0.277-0.219-0.452-0.242zM17.103 5.87l-2.24 0.001c-3.137 0-3.501 1.972-3.501 3.455v3.578c0 0.193 0.076 0.377 0.213 0.514s0.321 0.213 0.513 0.214h4.721l-0.537 4.145h-4.183c-0.193 0-0.378 0.077-0.514 0.213s-0.213 0.321-0.213 0.514v11.226h-4.332v-11.226c0-0.193-0.077-0.378-0.213-0.514s-0.321-0.213-0.514-0.213h-4.108v-4.145h4.108c0.193 0 0.378-0.077 0.514-0.213s0.213-0.321 0.213-0.514v-4.134c0-4.18 2.422-6.676 6.477-6.676 1.468 0 2.793 0.080 3.596 0.15v3.626z"></path>
</symbol>
<symbol id="icon-Vector_tiktok" viewBox="0 0 30 32">
<path d="M28.952 9.048c-1.894-0.002-3.709-0.756-5.048-2.095s-2.092-3.155-2.095-5.048c0-0.227-0.090-0.445-0.251-0.606s-0.379-0.251-0.606-0.251h-5.714c-0.227 0-0.445 0.090-0.606 0.251s-0.251 0.379-0.251 0.606v18.857c-0 0.562-0.152 1.114-0.438 1.598s-0.697 0.882-1.19 1.153c-0.493 0.271-1.049 0.405-1.611 0.388s-1.109-0.185-1.584-0.486c-0.475-0.301-0.861-0.724-1.117-1.224s-0.373-1.061-0.339-1.622c0.034-0.561 0.218-1.103 0.533-1.569s0.749-0.839 1.257-1.080c0.147-0.070 0.27-0.179 0.357-0.316s0.133-0.296 0.133-0.458v-6.099c-0-0.125-0.027-0.248-0.080-0.361s-0.129-0.213-0.224-0.293c-0.095-0.080-0.207-0.139-0.327-0.172s-0.246-0.039-0.369-0.018c-4.971 0.884-8.714 5.423-8.714 10.559 0 2.804 1.114 5.493 3.096 7.475s4.671 3.096 7.475 3.096 5.493-1.114 7.475-3.096c1.982-1.983 3.096-4.672 3.096-7.475v-6.153c2.18 1.229 4.64 1.873 7.143 1.867 0.227 0 0.445-0.090 0.606-0.251s0.251-0.379 0.251-0.606v-5.714c0-0.227-0.090-0.445-0.251-0.606s-0.379-0.251-0.606-0.251zM28.095 14.733c-2.395-0.153-4.697-0.979-6.643-2.384-0.128-0.092-0.279-0.147-0.437-0.159s-0.315 0.020-0.455 0.093c-0.14 0.072-0.258 0.182-0.34 0.317s-0.125 0.29-0.125 0.448v7.714c0 2.349-0.933 4.602-2.594 6.263s-3.914 2.594-6.263 2.594-4.602-0.933-6.263-2.594c-1.661-1.661-2.594-3.914-2.594-6.263 0-3.96 2.639-7.497 6.286-8.626v4.504c-0.717 0.448-1.305 1.075-1.706 1.819s-0.6 1.581-0.578 2.426c0.022 0.845 0.264 1.67 0.702 2.393s1.058 1.319 1.797 1.729c0.739 0.41 1.573 0.62 2.418 0.61s1.673-0.242 2.402-0.671c0.729-0.429 1.333-1.041 1.752-1.775s0.641-1.565 0.641-2.41v-18h4.041c0.201 2.042 1.104 3.952 2.555 5.403s3.361 2.354 5.403 2.555v4.013z"></path>
</symbol>
<symbol id="icon-weui_arrow-outlined" viewBox="0 0 23 32">
<path d="M18.111 23.227l-1.951 1.413-10.628-7.703c-0.171-0.123-0.307-0.27-0.4-0.432s-0.141-0.335-0.141-0.51c0-0.175 0.048-0.348 0.141-0.51s0.229-0.309 0.4-0.432l10.628-7.707 1.949 1.413-9.975 7.233 9.977 7.233z"></path>
</symbol>
<symbol id="icon-material-symbols_close" viewBox="0 0 32 32">
<path d="M8.533 25.333l-1.867-1.867 7.467-7.467-7.467-7.467 1.867-1.867 7.467 7.467 7.467-7.467 1.867 1.867-7.467 7.467 7.467 7.467-1.867 1.867-7.467-7.467-7.467 7.467z"></path>
</symbol>
<symbol id="icon-arrow-write" viewBox="0 0 32 32">
<path d="M5.12 16c0-6.016 4.864-10.88 10.88-10.88s10.88 4.864 10.88 10.88c0 6.016-4.864 10.88-10.88 10.88s-10.88-4.864-10.88-10.88zM25.6 16c0-5.312-4.288-9.6-9.6-9.6s-9.6 4.288-9.6 9.6c0 5.312 4.288 9.6 9.6 9.6s9.6-4.288 9.6-9.6z"></path>
<path d="M14.912 21.312l5.312-5.312-5.312-5.312 0.896-0.896 6.208 6.208-6.208 6.208-0.896-0.896z"></path>
<path d="M21.12 15.36v1.28h-10.88v-1.28h10.88z"></path>
</symbol>

<symbol id="icon-arrow-left" viewBox="0 0 32 32">
<path d="M26.88 16c0 6.016-4.864 10.88-10.88 10.88s-10.88-4.864-10.88-10.88c0-6.016 4.864-10.88 10.88-10.88s10.88 4.864 10.88 10.88zM6.4 16c0 5.312 4.288 9.6 9.6 9.6s9.6-4.288 9.6-9.6c0-5.312-4.288-9.6-9.6-9.6s-9.6 4.288-9.6 9.6z"></path>
<path d="M17.088 10.688l-5.312 5.312 5.312 5.312-0.896 0.896-6.208-6.208 6.208-6.208 0.896 0.896z"></path>
<path d="M10.88 16.64v-1.28h10.88v1.28h-10.88z"></path>
</symbol>

<symbol id="icon-iconamoon_menu-burger-horizontal" viewBox="0 0 33 32">
  <rect x="4.533" y="7" width="24" height="2" fill="currentColor" />
  <rect x="4.533" y="15" width="24" height="2" fill="currentColor" />
  <rect x="4.533" y="23" width="24" height="2" fill="currentColor" />
</symbol>

</defs>
</svg>
